<svg width="1512" height="1049" viewBox="0 0 1512 1049" fill="none" xmlns="http://www.w3.org/2000/svg">
<path d="M811.003 802.684C788.81 794.496 768.783 784.419 747.884 775.006C741.094 771.93 734.425 768.195 728.221 763.509C716.845 755.194 708.55 743.137 701.61 732.553C688.203 706.737 690.557 682.989 688.664 659.059C688.618 657.868 688.578 656.617 688.547 655.428C687.928 625.588 689.345 596.117 690.804 566.67C691.235 558.25 691.963 549.915 693.091 541.541C696.296 516.86 703.709 492.023 716.037 470.337C723.37 457.213 734.122 448.647 743.112 439.178C746.988 435.217 750.738 431.186 754.326 427.003C763.471 416.498 772.669 404.773 785.924 397.205C803.457 387.75 822.095 388.338 839.396 384.868C839.684 384.818 839.971 384.766 840.26 384.714C840.276 384.71 840.324 384.702 840.34 384.699C862.675 381.277 885.216 377.888 907.966 377.286C907.975 377.285 908.002 377.285 908.011 377.284C910.68 377.281 913.364 377.292 916.044 377.31C927.276 377.391 938.467 377.579 949.677 377.778C958.049 377.929 966.41 378.093 974.775 378.258C975.937 378.282 977.052 378.376 977.873 378.526C978.695 378.677 979.159 378.869 979.157 379.068C979.156 379.268 978.689 379.461 977.864 379.61C977.041 379.76 975.924 379.853 974.761 379.876C966.326 380.036 957.893 380.198 949.457 380.373C940.086 380.568 930.748 380.775 921.384 381.038C919.915 380.236 917.877 379.634 914.079 379.414C912.388 379.315 910.012 379.295 908.056 379.425C907.788 379.45 907.52 379.479 907.264 379.51C905.41 379.739 904.023 380.066 902.711 380.382C901.338 380.714 900.039 381.037 898.353 381.251C895.493 381.615 892.798 382.212 889.982 382.87C888.958 383.11 887.914 383.358 886.841 383.608C878.036 384.764 869.262 386.215 860.492 387.789C857.081 388.249 853.944 388.701 851.299 389.181C848.929 389.612 846.774 390.156 844.647 390.74C843.589 390.942 842.55 391.141 841.492 391.344L841.587 391.326C841.275 391.395 840.963 391.462 840.652 391.529C831.798 393.45 822.878 394.805 814.262 396.51C807.533 397.574 800.407 398.64 792.443 402.432C791.551 402.868 790.679 403.326 789.825 403.807C787.377 405.188 785.05 406.723 782.869 408.365C778.507 411.649 774.728 415.338 771.702 418.857C769.681 421.21 767.454 423.636 765.246 426.089C763.52 428.008 761.805 429.94 760.204 431.876C759.035 433.289 757.93 434.664 756.91 436.038C755.381 438.099 753.979 440.016 752.667 441.774C750.579 444.57 748.714 446.971 746.83 448.954C743.295 452.671 740.388 455.979 737.941 458.91C734.994 462.432 732.728 465.389 730.584 467.781C730.258 468.145 729.885 468.557 729.471 469.029C728.24 470.439 726.629 472.364 725.054 475.091C723.769 477.339 722.371 479.984 720.983 483.13C719.84 485.724 718.97 488.237 718.177 490.711C717.024 494.312 716.021 497.841 714.603 501.468C714.393 502.005 714.108 502.551 713.848 503.055C713.515 503.705 713.24 504.242 713.205 504.619C713.103 505.722 712.854 507.407 712.609 509.275C712.439 510.614 712.261 512.086 712.154 513.406C709.652 523.201 707.958 533.183 706.842 543.307C706.332 547.938 705.942 552.628 705.664 557.279C705.128 559.633 704.649 562.104 704.277 564.652C704.164 565.436 704.063 566.282 703.971 567.196C703.67 570.221 703.443 573.878 703.179 578.303C702.927 582.548 702.639 587.497 702.229 593.248C701.467 603.896 701.321 614.85 701.457 621.858C701.484 623.344 701.517 624.83 701.557 626.425C701.735 632.457 701.85 640.025 702.53 654.211C702.605 655.65 702.685 657.087 702.768 658.457C703.474 670.163 704.113 680.059 704.801 687.676C705.191 692.028 705.589 695.601 705.961 698.32C706.598 702.957 707.485 708.641 708.885 713.883C710.036 718.237 711.617 722.223 713.431 724.859C715.623 728.139 717.473 730.915 718.878 732.877C719.936 734.36 721.058 735.872 722.298 737.443C725.757 741.773 729.99 746.682 737.105 751.917C743.744 756.689 748.793 759.144 753.737 761.497C754.481 761.841 755.214 762.183 755.943 762.524C758.375 763.665 760.507 764.93 762.603 766.19C765.671 768.019 768.799 769.898 773.401 771.737C774.48 772.168 775.597 772.571 776.838 773.022C779.06 773.827 781.488 774.705 783.833 775.784C784.674 776.171 785.381 776.565 786.067 776.948C786.818 777.368 787.56 777.782 788.453 778.167C791.709 779.572 794.988 780.927 797.818 782.078C801.517 783.583 804.614 784.807 806.505 785.636C809.882 787.118 813.669 788.451 817.513 789.723C820.448 790.695 823.417 791.63 826.271 792.59C834.413 795.362 845.83 798.299 857.898 800.328C858.331 800.402 858.76 800.478 859.186 800.555C863.348 801.312 866.999 802.267 871.527 803.505C874.649 804.361 878.162 805.349 882.556 806.538C885.045 807.212 887.193 807.563 889.196 807.897C891.028 808.202 892.742 808.495 894.427 809.002C895.917 809.451 896.809 809.98 897.641 810.478C898.564 811.032 899.45 811.558 901.044 811.915C901.889 812.104 902.953 812.232 904.215 812.384C904.713 812.445 905.244 812.51 905.802 812.583C905.76 812.632 905.74 812.681 905.729 812.72C905.649 812.989 907.24 813.561 908.775 814.116C909.386 814.338 910.003 814.56 910.504 814.76C912.346 815.496 915.906 816.482 918.665 817.201C919.816 817.501 920.856 817.866 922.052 818.287C923.105 818.657 924.324 819.083 925.862 819.546C926.731 819.808 927.413 820.069 927.959 820.281C928.357 820.435 928.694 820.565 929.012 820.659C929.288 820.74 929.532 820.72 929.807 820.696C930.008 820.681 930.226 820.664 930.482 820.682C931.097 820.725 931.854 820.884 932.367 821.051C932.604 821.128 932.786 821.206 932.967 821.284C933.179 821.375 933.395 821.468 933.697 821.557C935.086 821.967 936.451 822.212 937.89 822.465C939.443 822.736 941.101 823.021 942.875 823.515C943.438 823.672 944.026 823.866 944.59 824.052C945.173 824.245 945.775 824.438 946.272 824.563C948.284 825.069 950.257 825.274 952.065 825.436C953.238 825.539 954.398 825.635 955.403 825.783C957.303 826.063 958.31 825.967 959.087 825.902C959.482 825.867 959.8 825.835 960.122 825.856C960.41 825.903 960.718 825.952 961.013 825.998C961.284 826.051 961.561 826.104 961.821 826.129C961.841 826.131 961.861 826.132 961.88 826.134C962.812 826.28 963.805 826.425 964.707 826.546C965.389 826.636 966.077 826.724 966.773 826.811C970.522 827.277 974.279 827.671 978.299 827.787C979.171 827.813 980.046 827.76 980.957 827.709C982.063 827.645 983.2 827.581 984.35 827.656C987.098 827.834 989.859 828.166 992.596 828.521C996.707 829.052 1000.73 829.635 1004.48 829.775C1005.72 829.821 1006.93 829.815 1008.16 829.818C1008.84 829.821 1009.53 829.825 1010.22 829.844C1010.06 829.956 1009.96 830.069 1009.88 830.174C1009.7 830.391 1009.55 830.576 1008.87 830.666C1007.28 830.877 1005.48 831.243 1005.62 831.673C1005.66 831.79 1005.61 831.908 1005.55 832.027C1005.4 832.327 1005.24 832.629 1006.64 832.937C1007.59 833.143 1010.01 833.671 1011.6 833.655C1011.94 833.651 1012.16 833.578 1012.41 833.497C1012.85 833.352 1013.38 833.178 1014.87 833.352C1015.12 833.381 1015.39 833.416 1015.68 833.453C1016.8 833.6 1018.05 833.781 1018.55 833.701C1019.12 833.608 1019.04 833.372 1018.96 833.096C1018.84 832.737 1018.7 832.307 1019.95 832.051C1020.2 832.001 1020.65 832.052 1020.99 832.091C1021.23 832.119 1021.41 832.14 1021.43 832.116C1021.46 832.088 1021.4 832.007 1021.32 831.904C1021.04 831.545 1020.54 830.901 1023.02 831.367C1023.68 831.495 1024.44 831.678 1025.12 831.848C1026.12 832.097 1026.94 832.315 1027.08 832.256C1027.13 832.234 1027.16 832.206 1027.2 832.176C1027.99 832.37 1028.79 832.571 1029.59 832.778C1030.59 833.132 1032.03 833.488 1033.82 833.978C1034.25 834.098 1034.71 834.226 1035.18 834.363C1036.74 834.841 1038.3 835.348 1039.84 835.888C1041.06 836.341 1042.34 836.867 1043.67 837.484C1046.33 838.722 1048.53 840.055 1050.63 841.418C1050.81 841.536 1050.99 841.655 1051.17 841.773C1051.84 842.219 1052.5 842.661 1053.18 843.1C1052.81 842.95 1052.49 842.818 1052.23 842.728C1051.72 842.55 1051.28 842.426 1050.91 842.34C1049.95 842.114 1049.36 842.135 1048.8 842.156C1048.28 842.176 1047.79 842.198 1047.06 842.04C1045.73 841.757 1045.74 842.093 1045.74 842.333C1045.75 842.459 1045.74 842.56 1045.56 842.545C1045.41 842.533 1045.1 842.428 1044.78 842.322C1044.5 842.23 1044.21 842.136 1044.02 842.098C1041.65 841.653 1042.23 842.155 1043.05 842.866C1043.51 843.26 1044.03 843.727 1044.18 844.141C1044.29 844.558 1044.18 844.614 1043 844.297C1043.82 844.8 1044.62 845.312 1045.42 845.835C1045.76 845.969 1046.06 845.982 1046.49 845.976C1046.94 845.971 1047.87 846.253 1048.9 846.641C1049.62 846.912 1050.38 847.224 1051.07 847.505C1051.84 847.821 1052.51 848.096 1052.9 848.227C1054.98 848.926 1054.56 848.332 1054.19 847.806C1053.99 847.518 1053.8 847.251 1054.05 847.234C1054.16 847.226 1054.06 847.121 1053.96 847.015C1053.88 846.932 1053.8 846.848 1053.82 846.807C1053.93 846.511 1055.2 846.853 1056.37 847.172C1057.04 847.355 1057.69 847.529 1058.06 847.571C1058.18 847.584 1058.28 847.587 1058.37 847.588C1058.5 847.589 1058.63 847.593 1058.81 847.631C1059.23 847.72 1060.04 848.03 1060.92 848.371C1061.37 848.546 1061.85 848.729 1062.29 848.893C1062.87 849.106 1063.13 849.092 1063.4 849.079C1063.59 849.069 1063.79 849.06 1064.11 849.131C1064.7 849.258 1065.77 849.727 1066.76 850.161C1067.19 850.35 1067.62 850.536 1067.98 850.683C1068.12 850.743 1068.2 850.758 1068.23 850.739C1069.88 851.443 1071.44 852.107 1072.97 852.767C1080.62 856.065 1087.25 858.986 1096.56 864.465C1098.3 865.495 1100.23 866.561 1102.19 867.616C1108.29 871.228 1114.34 874.984 1120.25 878.93C1121.31 879.945 1122.6 881.063 1124.21 882.364C1127.2 884.789 1130.41 887.094 1134.09 889.989C1136.81 892.134 1139.82 894.6 1143.03 897.819C1144.62 899.42 1146.15 901.073 1147.62 902.865C1151.1 907.067 1154.43 911.686 1158.25 916.13C1160.09 918.227 1162.09 920.24 1164.34 921.824C1169.13 925.206 1173.9 928.472 1177.7 930.927C1180.84 932.955 1184.05 935.217 1187.09 937.245C1191.37 940.104 1195.35 942.486 1198.07 943.321C1198.94 943.589 1199.82 943.744 1200.68 943.887C1201.3 943.988 1201.9 944.085 1202.47 944.21C1203.86 944.871 1205.25 945.507 1206.66 946.117C1209.06 947.407 1212.95 949.179 1216.97 949.976C1218.47 950.443 1219.99 950.87 1221.46 951.241C1222.2 951.429 1222.95 951.605 1223.7 951.769C1226.21 952.321 1228.7 952.843 1231.22 953.345C1232.29 953.558 1233.36 953.768 1234.45 953.976C1234.46 953.978 1234.47 953.98 1234.48 953.982C1236.67 954.398 1238.87 954.797 1241.04 955.173C1241.98 955.335 1242.9 955.491 1243.83 955.646C1246.2 956.037 1248.59 956.409 1250.94 956.753C1252.18 956.936 1253.44 957.114 1254.7 957.286C1256.74 957.565 1258.81 957.829 1260.86 958.077C1264.19 958.477 1267.5 958.833 1270.82 959.156C1271.38 959.21 1271.88 959.292 1272.27 959.391C1272.65 959.489 1272.86 959.594 1272.85 959.687C1272.84 959.781 1272.63 959.858 1272.23 959.904C1271.83 959.949 1271.32 959.961 1270.76 959.937C1267.43 959.795 1264.08 959.617 1260.73 959.393C1258.66 959.255 1256.57 959.099 1254.51 958.928C1253.24 958.822 1251.97 958.709 1250.71 958.592C1248.33 958.37 1245.91 958.12 1243.51 957.849C1242.56 957.741 1241.63 957.633 1240.68 957.518C1238.47 957.252 1236.23 956.962 1234.01 956.653C1234 956.651 1233.98 956.649 1233.97 956.647C1232.87 956.494 1231.78 956.339 1230.71 956.18C1228.16 955.804 1225.63 955.405 1223.08 954.974C1222.28 954.841 1221.49 954.693 1220.69 954.534C1218.94 954.185 1217.13 953.759 1215.34 953.285C1214.35 953.02 1213.37 952.741 1212.4 952.451C1211.87 952.293 1211.34 952.128 1210.81 951.957C1198.53 948.029 1187.16 942.07 1176.19 935.468C1171.19 932.448 1166.27 929.273 1161.42 926.088C1155.05 921.816 1150.92 915.991 1146.42 910.99C1145.25 909.654 1144.08 908.347 1142.89 907.05C1135.87 899.636 1126.85 893.55 1117.83 887.815C1095.33 873.811 1071.19 862.119 1046.8 851.151C1021.58 839.867 992.941 840.418 963.688 838.757C937.312 835.985 914.012 828.118 889.864 822.537C878.782 819.839 867.412 817.259 856.28 815.133C856.253 815.128 856.226 815.123 856.199 815.118C844.506 812.885 833.028 810.058 821.596 806.335C818.123 805.21 814.594 803.99 811.003 802.684Z" fill="url(#paint0_linear_2002_286)"/>
<path d="M1484.79 91.3265C1477.4 83.5837 1470.4 75.6731 1462.94 67.8522C1460.33 65.108 1457.61 62.4562 1454.71 59.9325C1441.18 48.1125 1424.58 38.8309 1409.87 26.9201C1406.53 24.2502 1403.24 21.5416 1399.97 18.7818C1388.32 9.0065 1378.39 -3.14244 1371.48 -16.6987C1368.26 -22.9541 1365.66 -29.4814 1363.57 -36.053C1358.75 -50.9628 1366.3 -64.6001 1373.18 -74.403C1379.77 -83.7361 1387.38 -91.7565 1393.73 -100.245C1398.67 -106.936 1405.11 -112.014 1411.88 -116.019C1423.19 -122.649 1435.49 -126.613 1447.82 -129.608C1451.17 -130.418 1454.59 -131.151 1457.94 -131.864C1457.95 -131.867 1457.97 -131.872 1457.98 -131.874C1460.01 -132.239 1462.05 -132.643 1464.09 -133.035C1464.97 -133.202 1465.84 -133.366 1466.71 -133.524C1469.92 -134.114 1473.16 -134.56 1476.39 -134.874C1476.96 -134.93 1477.52 -134.909 1477.94 -134.812C1478.36 -134.715 1478.61 -134.552 1478.64 -134.355C1478.66 -134.157 1478.46 -133.937 1478.08 -133.737C1477.7 -133.537 1477.16 -133.372 1476.61 -133.272C1473.44 -132.709 1470.33 -132.027 1467.23 -131.2C1466.35 -130.966 1465.46 -130.727 1464.58 -130.483C1462.61 -129.944 1460.64 -129.39 1458.64 -128.868L1458.71 -128.882C1456.26 -128.154 1453.78 -127.42 1451.34 -126.654C1450.45 -127.257 1449.31 -127.592 1447.44 -127.338C1446.5 -127.213 1445.13 -126.87 1444.21 -126.428C1443.36 -126.025 1442.79 -125.591 1442.23 -125.17C1441.64 -124.728 1441.11 -124.314 1440.34 -123.973C1439.04 -123.395 1437.88 -122.627 1436.69 -121.811C1436.26 -121.514 1435.81 -121.205 1435.36 -120.901C1431.37 -119.236 1427.47 -117.4 1423.72 -115.35C1422.2 -114.693 1420.83 -114.042 1419.73 -113.389C1418.74 -112.802 1417.92 -112.123 1417.14 -111.4C1416.59 -111.039 1416.05 -110.673 1415.52 -110.3C1412.07 -107.897 1408.85 -105.234 1406.05 -102.286C1404.02 -100.558 1402.02 -98.6181 1400.03 -95.9268C1399.6 -95.3467 1399.16 -94.7403 1398.69 -94.1144C1397.46 -92.456 1396.15 -90.8968 1394.89 -89.4267C1393.03 -87.2527 1391.27 -85.2494 1389.93 -83.3358C1389.04 -82.0577 1387.95 -80.8377 1386.88 -79.6173C1385.44 -77.981 1384.02 -76.3344 1383.13 -74.5669C1382.58 -73.4552 1382.13 -72.3997 1381.73 -71.4223C1381.09 -69.8668 1380.58 -68.5118 1379.92 -67.4191C1378.67 -65.3632 1377.89 -63.4579 1377.27 -61.7737C1376.53 -59.7495 1376.05 -58.083 1375.27 -56.7646C1375.15 -56.5648 1375.01 -56.3384 1374.86 -56.0833C1374.07 -54.7448 1372.74 -52.4594 1372.61 -49.0226C1372.58 -47.8074 1372.79 -46.6813 1373.07 -45.6354C1373.48 -44.1 1374.02 -42.7668 1374.28 -41.2365C1374.32 -41.0095 1374.3 -40.7515 1374.28 -40.5125C1374.26 -40.2133 1374.26 -39.9448 1374.38 -39.828C1374.38 -39.8261 1374.38 -39.8242 1374.38 -39.8223C1374.79 -39.413 1375.32 -38.7082 1375.9 -37.9718C1376.34 -37.4217 1376.79 -36.8567 1377.25 -36.341C1379.13 -31.8265 1381.26 -27.4666 1383.68 -23.29C1384.78 -21.3779 1385.94 -19.5048 1387.17 -17.6733C1387.46 -16.5239 1387.82 -15.3715 1388.3 -14.2208C1388.94 -12.7115 1390.07 -10.9427 1391.62 -8.7379C1392.77 -7.11802 1394.15 -5.25563 1395.79 -3.08823C1398.81 0.941925 1402.67 4.44118 1405.33 6.43344C1405.89 6.85701 1406.46 7.2805 1407.07 7.71788C1407.46 7.9949 1407.86 8.28253 1408.29 8.58789C1410.55 10.1778 1413.43 12.2342 1418.18 15.6326C1423.59 19.5 1428.15 22.8186 1431.6 25.3122C1433.37 26.5916 1434.84 27.6444 1435.98 28.436C1437.93 29.7835 1440.34 31.4727 1442.75 33.1798C1446.53 35.8477 1450.34 38.6118 1452.53 40.1518C1453.31 40.698 1454.14 41.2692 1455.03 41.8917C1457.49 43.6207 1460.46 45.7395 1464.35 48.9612C1468.42 52.3494 1470.77 54.6918 1473.08 57.1968C1473.12 57.2342 1473.15 57.2718 1473.18 57.3094C1474.03 58.2604 1474.65 59.2809 1475.27 60.3204C1476.2 61.8547 1477.16 63.4571 1479.01 65.0761C1479.44 65.4521 1479.93 65.8273 1480.44 66.2216C1481.38 66.9499 1482.39 67.726 1483.27 68.6984C1483.57 69.038 1483.8 69.3779 1484.02 69.7142C1484.26 70.0837 1484.49 70.4462 1484.83 70.7902C1486.08 72.0746 1487.33 73.3028 1488.43 74.3997C1489.85 75.8151 1491.03 77.0135 1491.7 77.8195C1492.9 79.256 1494.39 80.6551 1495.88 82.0895C1497.03 83.185 1498.18 84.3021 1499.21 85.4646C1502.15 88.7863 1506.34 93.2395 1510.57 98.0178C1512.18 99.8285 1513.27 101.578 1514.62 103.851C1515.45 105.265 1516.39 106.887 1517.58 108.88C1518.26 110.018 1519 110.845 1519.7 111.642C1520.34 112.372 1520.92 113.049 1521.33 113.872C1521.69 114.599 1521.71 115.187 1521.71 115.742C1521.72 116.359 1521.73 116.936 1522.19 117.645C1522.44 118.022 1522.84 118.427 1523.3 118.915C1523.48 119.108 1523.68 119.314 1523.88 119.54C1523.82 119.554 1523.77 119.576 1523.74 119.595C1523.49 119.728 1523.78 120.563 1524.04 121.382C1524.14 121.709 1524.24 122.034 1524.31 122.31C1524.56 123.334 1525.37 125.07 1525.98 126.428C1526.25 126.998 1526.39 127.551 1526.56 128.199C1526.71 128.779 1526.87 129.432 1527.13 130.238C1527.27 130.698 1527.33 131.071 1527.37 131.383C1527.41 131.609 1527.43 131.801 1527.48 131.969C1527.53 132.114 1527.65 132.201 1527.78 132.3C1527.87 132.37 1527.98 132.448 1528.07 132.557C1528.28 132.817 1528.44 133.191 1528.5 133.473C1528.53 133.602 1528.54 133.711 1528.54 133.82C1528.54 133.947 1528.55 134.074 1528.59 134.235C1528.78 134.978 1529.09 135.654 1529.4 136.364C1529.74 137.149 1530.09 137.981 1530.26 138.96C1530.28 139.059 1530.29 139.161 1530.3 139.264C1530.33 139.473 1530.34 139.689 1530.35 139.901C1530.37 140.228 1530.39 140.547 1530.43 140.812C1530.62 141.882 1531.05 142.876 1531.42 143.735C1531.67 144.318 1531.9 144.876 1532.03 145.415C1532.28 146.409 1532.61 146.887 1532.85 147.244C1532.98 147.429 1533.09 147.58 1533.14 147.75C1533.16 147.91 1533.18 148.073 1533.2 148.233C1533.21 148.382 1533.22 148.535 1533.25 148.676C1533.25 148.687 1533.25 148.697 1533.25 148.708C1533.35 149.61 1533.41 150.507 1533.46 151.371C1533.57 153.341 1533.65 155.28 1533.99 157.299C1534.07 157.734 1534.22 158.181 1534.37 158.617C1534.55 159.153 1534.74 159.706 1534.79 160.286C1534.91 161.672 1534.87 163.089 1534.82 164.466C1534.75 166.559 1534.64 168.568 1535 170.415C1535.12 171.026 1535.29 171.614 1535.46 172.204C1535.55 172.533 1535.65 172.865 1535.73 173.2C1535.6 173.134 1535.47 173.101 1535.36 173.07C1535.11 173.006 1534.91 172.951 1534.72 172.635C1534.28 171.887 1533.68 171.057 1533.27 171.171C1533.16 171.202 1533.04 171.187 1532.91 171.17C1532.59 171.126 1532.27 171.091 1532.16 171.795C1532.08 172.271 1531.91 173.492 1532.18 174.26C1532.24 174.427 1532.34 174.526 1532.46 174.637C1532.68 174.836 1532.93 175.075 1533.01 175.812C1533.02 175.935 1533.03 176.069 1533.05 176.207C1533.09 176.76 1533.14 177.381 1533.31 177.61C1533.51 177.874 1533.73 177.813 1533.98 177.741C1534.31 177.648 1534.71 177.534 1535.19 178.108C1535.29 178.222 1535.33 178.442 1535.35 178.608C1535.37 178.725 1535.39 178.815 1535.42 178.823C1535.45 178.833 1535.52 178.794 1535.6 178.745C1535.9 178.573 1536.43 178.269 1536.47 179.497C1536.48 179.829 1536.45 180.21 1536.43 180.548C1536.4 181.048 1536.38 181.463 1536.46 181.519C1536.5 181.54 1536.53 181.554 1536.57 181.566C1536.56 181.965 1536.55 182.364 1536.54 182.763C1536.43 183.274 1536.44 183.994 1536.44 184.89C1536.44 185.107 1536.44 185.336 1536.44 185.574C1536.41 186.36 1536.37 187.146 1536.33 187.932C1536.27 188.555 1536.18 189.217 1536.04 189.913C1535.77 191.307 1535.34 192.509 1534.92 193.676C1534.74 194.169 1534.56 194.656 1534.39 195.149C1534.38 194.953 1534.37 194.775 1534.35 194.638C1534.21 193.699 1533.85 193.308 1533.53 192.951C1533.31 192.713 1533.1 192.489 1532.98 192.129C1532.75 191.47 1532.44 191.524 1532.22 191.562C1532.11 191.582 1532.01 191.596 1531.96 191.508C1531.92 191.437 1531.9 191.276 1531.89 191.111C1531.87 190.966 1531.86 190.817 1531.83 190.721C1531.43 189.552 1531.16 189.892 1530.77 190.38C1530.56 190.649 1530.31 190.963 1529.98 191.097C1529.63 191.21 1529.53 191.163 1529.41 190.561C1529.23 191.02 1529.04 191.478 1528.85 191.934C1528.85 192.117 1528.95 192.26 1529.12 192.462C1529.42 192.823 1529.48 193.962 1529.52 194.852C1529.53 195.265 1529.55 195.623 1529.59 195.828C1529.77 196.914 1530.15 196.627 1530.48 196.372C1530.67 196.232 1530.84 196.102 1530.95 196.219C1531 196.268 1531.06 196.205 1531.12 196.142C1531.16 196.092 1531.21 196.042 1531.25 196.042C1531.57 196.048 1531.76 196.701 1531.93 197.31C1532.03 197.658 1532.13 197.99 1532.24 198.179C1532.28 198.237 1532.31 198.283 1532.35 198.327C1532.4 198.391 1532.45 198.453 1532.48 198.547C1532.57 198.763 1532.61 199.196 1532.65 199.67C1532.67 199.914 1532.69 200.168 1532.72 200.409C1532.75 200.721 1532.87 200.842 1532.99 200.97C1533.07 201.061 1533.16 201.155 1533.22 201.321C1533.34 201.622 1533.34 202.208 1533.33 202.754C1533.33 202.993 1533.33 203.224 1533.34 203.419C1533.34 203.499 1533.36 203.538 1533.39 203.549C1533.4 204.451 1533.41 205.311 1533.42 206.147C1533.44 210.355 1533.39 214.015 1532.11 219.331C1531.87 220.317 1531.67 221.43 1531.49 222.531C1530.65 226.002 1529.67 229.493 1528.54 232.904C1528.06 233.517 1527.58 234.286 1527.1 235.204C1526.17 236.951 1525.47 238.768 1524.51 240.969C1523.82 242.55 1522.98 244.355 1521.82 246.29C1519.83 249.578 1517.61 252.889 1514.58 256.251C1513.13 257.845 1511.41 259.453 1509.59 260.76C1507.73 262.102 1505.92 263.339 1504.43 264.347C1502.87 265.401 1501.09 266.281 1499.42 267.077C1497.08 268.198 1494.96 269.146 1493.98 270.242C1493.67 270.593 1493.42 271.022 1493.17 271.438C1493 271.735 1492.82 272.026 1492.63 272.279C1491.94 272.642 1491.25 273.003 1490.56 273.359C1489.21 273.803 1487.2 274.585 1485.52 275.855C1484.8 276.2 1484.06 276.547 1483.36 276.871C1481.82 277.587 1480.32 278.26 1478.77 278.925C1478.27 279.14 1477.77 279.356 1477.26 279.571C1477.25 279.573 1477.25 279.575 1477.24 279.577C1476.22 280.005 1475.18 280.43 1474.15 280.835C1473.71 281.01 1473.27 281.178 1472.83 281.347C1471.7 281.779 1470.57 282.196 1469.45 282.588C1468.85 282.798 1468.26 282.997 1467.65 283.2C1466.67 283.521 1465.68 283.832 1464.67 284.123C1463.06 284.589 1461.44 285.003 1459.79 285.323C1459.51 285.377 1459.24 285.392 1459.04 285.364C1458.84 285.336 1458.72 285.269 1458.7 285.177C1458.68 285.086 1458.76 284.974 1458.93 284.862C1459.09 284.749 1459.33 284.644 1459.6 284.563C1461.18 284.073 1462.71 283.496 1464.24 282.871C1465.19 282.481 1466.13 282.074 1467.05 281.657C1467.63 281.395 1468.18 281.139 1468.75 280.871C1469.81 280.37 1470.88 279.846 1471.94 279.309C1472.35 279.098 1472.76 278.888 1473.17 278.672C1474.14 278.17 1475.12 277.648 1476.08 277.125C1476.09 277.121 1476.09 277.118 1476.1 277.115C1476.57 276.855 1477.05 276.595 1477.51 276.336C1478.95 275.532 1480.36 274.722 1481.8 273.873C1482.54 273.435 1483.31 272.972 1484.07 272.511C1484.5 272.254 1484.92 271.994 1485.33 271.74C1485.56 271.6 1485.79 271.459 1486.02 271.316C1491.29 268.032 1496.38 264.569 1501.32 260.849C1503.1 259.508 1504.85 258.137 1506.55 256.729C1509.27 254.462 1511.49 251.492 1513.32 248.27C1516.19 243.21 1518.2 237.51 1519.73 231.719C1526.71 202.634 1526.1 170.599 1518.97 142.124C1516.9 134.771 1513.27 127.632 1508.9 120.846C1506.02 116.367 1502.71 111.9 1499.28 107.658C1495.81 103.362 1492.21 99.2736 1488.4 95.1537C1487.24 93.9041 1486.04 92.6283 1484.79 91.3265Z" fill="url(#paint1_linear_2002_286)"/>
<path d="M163.734 285.354C159.812 290.211 155.871 294.979 151.865 299.707C141.14 312.204 132.8 326.822 125.684 342.886C122.67 349.725 119.919 356.665 117.264 363.77C111.734 378.46 112.362 395.811 109.892 413.708C109.41 417.842 109.207 423.241 108.953 428.195C107.668 457.415 107.055 487.065 106.211 516.586C106.201 516.96 106.19 517.332 106.178 517.702C106.004 545.078 97.6105 573.42 87.9102 597.194C86.9526 600.246 85.9442 603.262 84.8712 606.257C78.0963 626.367 66.2205 644.787 54.7539 661.608C49.6357 669.568 43.5137 676.878 36.9031 683.449C32.0544 688.323 27.0182 692.823 22.572 697.688C13.6588 707.414 2.46705 714.438 -9.32275 719.503C-9.37683 719.529 -9.54313 719.585 -9.60089 719.601C-10.4523 719.797 -11.3039 719.993 -12.1541 720.192C-20.8005 722.224 -29.4103 724.336 -37.4989 727.811C-41.1837 729.411 -44.7493 731.321 -47.9154 733.771L-47.7358 733.538C-48.7836 735.72 -49.0515 738.297 -49.1961 740.831C-49.2457 741.746 -49.344 742.628 -49.4959 743.279C-49.6476 743.931 -49.8396 744.3 -50.0387 744.299C-50.2377 744.297 -50.4313 743.927 -50.5799 743.27C-50.7275 742.613 -50.8171 741.716 -50.8123 740.773C-50.7795 738.165 -50.6803 735.422 -49.5512 732.715C-49.493 732.592 -49.2825 732.311 -49.1758 732.227C-45.9098 729.438 -42.2168 727.241 -38.4246 725.382C-31.5696 722.046 -24.3727 719.732 -17.1962 717.605C-15.8454 718.087 -14.1307 718.271 -11.1433 717.785C-10.8248 717.733 -10.4777 717.671 -10.1136 717.599L-10.1786 717.622C-8.87168 717.116 -7.35772 716.399 -6.25161 715.704C-4.99553 714.915 -4.13093 714.176 -3.32166 713.467C-2.4772 712.725 -1.68804 712.013 -0.583412 711.262C1.29033 709.985 2.91291 708.531 4.54139 706.958C5.13426 706.385 5.72827 705.796 6.33548 705.19C10.6953 701.814 14.7185 698.042 18.172 693.867C19.1032 692.745 20.054 691.65 21.0155 690.574C22.9979 688.584 24.8373 686.828 26.3226 685.277C27.6544 683.888 28.7648 682.524 29.8207 681.135C30.5601 680.342 31.2979 679.543 32.0238 678.745C36.7264 673.591 41.0132 668.238 44.7629 662.492C45.9257 660.94 47.0726 659.327 48.2294 657.587C50.3447 654.391 52.6706 650.981 55.2944 646.972C57.0683 644.259 58.8506 641.636 60.5124 639.083C62.9671 635.318 65.1463 631.71 66.7277 628.366C67.7821 626.139 69.0161 623.862 70.1951 621.552C71.776 618.46 73.2575 615.302 74.1012 612.253C74.636 610.326 75.0367 608.541 75.3869 606.89C75.9489 604.248 76.3831 601.95 77.0082 599.917C77.5991 597.993 78.0689 596.178 78.474 594.434C78.8961 592.647 79.3106 591.014 79.7155 589.49C80.7038 585.794 81.5926 582.791 82.7458 580.329C82.9203 579.958 83.1306 579.524 83.362 579.049C84.5734 576.538 86.5514 572.523 88.0742 566.4C88.6151 564.21 88.9221 562.133 89.1913 560.071C89.5803 557.074 89.8693 554.203 90.6006 551.187C90.7096 550.737 90.8934 550.267 91.0567 549.851C91.2637 549.327 91.4427 548.861 91.4108 548.561C91.3192 547.669 91.2748 546.31 91.2065 544.809C91.1586 543.692 91.0876 542.572 90.9911 541.481C91.9135 533.54 92.3128 525.48 92.3183 517.415C92.3186 517.085 92.3182 516.754 92.3172 516.421C92.3075 512.926 92.2996 509.453 92.2939 505.996C92.6853 504.024 93.0405 502.077 93.3179 499.951C93.6803 497.197 93.8266 493.65 94.0202 489.034C94.1623 485.672 94.3306 481.694 94.6297 477.123C95.1825 468.629 95.2446 459.88 95.1338 454.298C95.1104 453.106 95.0847 451.898 95.0563 450.647C94.9605 445.805 94.7956 439.771 94.9251 428.252C95.0316 422.323 95.0947 417.151 95.72 411.684C96.2305 407.743 96.5985 404.164 96.9052 401.023C97.2408 397.556 97.503 394.628 97.6946 392.37C98.0222 388.507 98.4717 383.695 99.1933 378.776C100.252 371.077 102.407 363.168 104.039 358.791C104.062 358.727 104.085 358.662 104.108 358.598C104.611 357.189 105.104 355.785 105.67 354.207C107.288 349.703 109.242 344.303 112.358 336.909C115.642 329.167 118.016 324.476 120.677 319.686C121.769 317.73 122.958 316.15 124.219 314.515C126.006 312.207 127.887 309.84 129.91 306.292C130.386 305.46 130.865 304.56 131.378 303.622C132.323 301.894 133.382 300.039 134.7 298.295C135.162 297.683 135.616 297.197 136.074 296.709C136.573 296.18 137.067 295.663 137.553 295.026C138.678 293.553 139.799 292.121 140.881 290.777C141.505 290 142.139 289.207 142.719 288.481C144.712 285.986 146.377 283.9 147.487 282.65C149.462 280.427 151.415 277.84 153.41 275.218C154.932 273.215 156.479 271.192 158.066 269.307C162.605 263.919 168.668 256.353 175.155 248.617C177.612 245.692 179.959 243.438 183.033 240.606C184.953 238.844 187.144 236.864 189.914 234.394C191.487 232.994 192.674 231.668 193.828 230.426C194.87 229.302 195.879 228.254 197.082 227.358C197.543 227.015 197.958 226.77 198.343 226.581C198.83 226.347 199.269 226.201 199.693 226.06C200.529 225.781 201.295 225.533 202.26 224.681C202.783 224.22 203.345 223.579 203.998 222.827C204.26 222.527 204.52 222.222 204.83 221.878C204.849 221.938 204.878 221.983 204.903 222.014C205.079 222.233 206.211 221.503 207.287 220.81C207.715 220.535 208.149 220.253 208.522 220.032C209.882 219.228 212.171 217.393 213.882 215.956C214.62 215.337 215.326 214.863 216.157 214.301C216.914 213.788 217.741 213.229 218.756 212.453C219.347 212.002 219.828 211.703 220.225 211.458C220.512 211.281 220.754 211.131 220.96 210.972C221.143 210.83 221.237 210.646 221.339 210.44C221.413 210.293 221.493 210.132 221.616 209.967C221.913 209.572 222.357 209.152 222.704 208.905C222.863 208.792 223.006 208.712 223.147 208.633C223.312 208.541 223.475 208.45 223.675 208.297C224.59 207.598 225.372 206.812 226.197 205.983C227.08 205.092 228.042 204.126 229.21 203.232C229.585 202.945 230 202.666 230.399 202.399C230.813 202.123 231.228 201.844 231.555 201.583C232.873 200.534 233.947 199.348 234.944 198.25C235.603 197.523 236.225 196.838 236.859 196.262C238.008 195.217 238.511 194.473 238.859 193.943C239.048 193.662 239.201 193.433 239.398 193.236C239.596 193.077 239.796 192.918 239.993 192.763C240.18 192.628 240.37 192.492 240.541 192.34C240.554 192.329 240.566 192.317 240.579 192.306C241.698 191.439 242.814 190.614 243.931 189.798C246.444 187.96 248.953 186.17 251.482 184.09C252.027 183.641 252.538 183.125 253.062 182.603C253.703 181.964 254.367 181.311 255.128 180.764C256.943 179.46 258.887 178.286 260.81 177.169C260.865 177.138 260.92 177.106 260.975 177.074C263.812 175.437 266.573 173.937 268.849 172.166C269.619 171.568 270.333 170.939 271.042 170.311C271.437 169.962 271.868 169.588 272.255 169.255C272.234 169.425 272.251 169.561 272.268 169.688C272.302 169.949 272.33 170.174 271.984 170.601C271.172 171.61 270.357 172.803 270.693 173.075C270.789 173.146 270.827 173.269 270.863 173.395C270.947 173.714 271.071 174.014 272.071 173.544C272.749 173.225 274.517 172.356 275.423 171.487C275.623 171.296 275.707 171.119 275.801 170.922C275.976 170.562 276.145 170.162 277.1 169.478C277.261 169.362 277.437 169.238 277.621 169.11C278.364 168.591 279.14 168.045 279.367 167.699C279.62 167.306 279.424 167.172 279.196 167.015C278.899 166.811 278.543 166.57 279.056 165.667C279.158 165.489 279.437 165.268 279.635 165.11C279.777 164.997 279.885 164.909 279.882 164.878C279.877 164.842 279.791 164.817 279.683 164.785C279.302 164.672 278.627 164.483 280.204 163.424C280.63 163.138 281.152 162.826 281.6 162.559C282.26 162.165 282.816 161.831 282.84 161.711C282.849 161.666 282.849 161.623 282.844 161.582C283.365 161.25 283.907 160.904 284.415 160.578C285.122 160.232 286.059 159.597 287.202 158.815C287.478 158.626 287.77 158.426 288.075 158.218C289.101 157.551 290.121 156.884 291.136 156.215C291.961 155.703 292.85 155.177 293.801 154.655C295.726 153.594 297.472 152.822 299.199 152.039C299.919 151.715 300.635 151.39 301.354 151.043C301.116 151.236 300.904 151.414 300.748 151.56C299.68 152.561 299.428 153.2 299.186 153.797C299.026 154.192 298.875 154.565 298.499 155.001C297.811 155.8 298.068 155.985 298.256 156.124C298.354 156.195 298.433 156.255 298.354 156.379C298.29 156.479 298.095 156.642 297.894 156.809C297.719 156.954 297.533 157.109 297.429 157.225C296.168 158.64 296.767 158.532 297.641 158.376C298.123 158.289 298.694 158.183 299.071 158.316C299.433 158.483 299.445 158.599 298.722 159.271C299.447 158.973 300.148 158.689 300.864 158.392C301.1 158.212 301.222 157.996 301.377 157.669C301.661 157.082 303.077 155.933 304.188 155.02C304.703 154.597 305.149 154.227 305.382 153.998C306.624 152.774 306.006 152.779 305.464 152.785C305.165 152.788 304.89 152.79 304.958 152.587C304.987 152.501 304.87 152.521 304.752 152.541C304.661 152.556 304.568 152.572 304.54 152.539C304.337 152.298 305.02 151.512 305.654 150.777C306.016 150.356 306.364 149.951 306.515 149.683C306.562 149.601 306.594 149.528 306.623 149.46C306.666 149.359 306.708 149.262 306.796 149.141C306.997 148.863 307.496 148.405 308.044 147.9C308.324 147.641 308.617 147.37 308.887 147.106C309.236 146.766 309.299 146.561 309.367 146.347C309.415 146.195 309.466 146.037 309.618 145.824C309.893 145.438 310.589 144.842 311.234 144.284C311.514 144.042 311.783 143.808 312.004 143.602C312.094 143.519 312.127 143.466 312.12 143.435C313.156 142.503 314.14 141.599 315.085 140.718C319.82 136.276 323.826 132.393 330.051 126.946C331.224 125.912 332.42 124.732 333.578 123.502C336.835 120.377 339.958 117.136 342.866 113.752C343.467 113.052 344.069 112.352 344.671 111.651C345.589 110.978 346.631 110.083 347.787 108.968C349.959 106.872 351.971 104.537 354.326 101.775C356.066 99.7323 357.995 97.4559 360.3 94.8545C364.169 90.4811 368.037 85.9098 372.031 80.4935C376.02 75.1112 380.176 68.6909 382.713 63.9481C384.11 61.3728 385.671 58.7204 386.993 56.1673C388.098 54.0413 389.034 51.9865 389.625 50.1967C390.048 48.9168 390.336 47.8019 390.432 46.8875C390.512 46.1591 390.489 45.4135 390.461 44.704C390.441 44.1974 390.422 43.7019 390.437 43.2306C390.832 42.0406 391.213 40.8777 391.592 39.7065C392.485 37.6646 393.708 34.475 394.243 31.2136C394.616 29.9643 394.963 28.789 395.313 27.5792C396.05 25.0255 396.761 22.4557 397.43 19.9044C397.651 19.0606 397.864 18.2372 398.081 17.3719C398.083 17.3639 398.085 17.3558 398.087 17.3478C398.513 15.6644 398.935 13.9133 399.326 12.2146C399.49 11.5073 399.661 10.7401 399.818 10.028C400.229 8.15496 400.608 6.31373 400.962 4.44997C401.149 3.46539 401.325 2.49355 401.497 1.48829C401.773 -0.125164 402.023 -1.72742 402.245 -3.36074C402.602 -5.99145 402.877 -8.59847 403.027 -11.2254C403.052 -11.6743 403.104 -12.0578 403.179 -12.3787C403.253 -12.6848 403.344 -12.8464 403.438 -12.8466C403.531 -12.8455 403.623 -12.6822 403.693 -12.3718C403.763 -12.0467 403.805 -11.6584 403.81 -11.205C403.841 -8.54601 403.743 -5.89433 403.561 -3.21679C403.447 -1.55517 403.304 0.0777588 403.133 1.72282C403.026 2.74875 402.914 3.73939 402.791 4.74455C402.558 6.64831 402.298 8.53219 402.005 10.4473C401.894 11.1758 401.769 11.9612 401.652 12.6841C401.368 14.4285 401.053 16.2225 400.732 17.9535C400.73 17.9641 400.728 17.9747 400.726 17.9854C400.562 18.8662 400.403 19.7029 400.235 20.5624C399.724 23.1774 399.168 25.8152 398.584 28.4353C398.276 29.8196 397.952 31.2266 397.618 32.64C397.435 33.4169 397.247 34.2032 397.057 34.9859C396.957 35.3998 396.854 35.8201 396.748 36.2468C395.515 41.2548 394.185 46.235 392.781 51.1892C391.395 56.0621 389.463 60.7634 387.251 65.295C382.72 74.5295 377.085 83.0962 371.202 91.3484C365.288 99.6166 359.057 107.575 352.861 115.5C351.838 116.808 350.814 118.116 349.796 119.422C327.019 147.665 296.204 167.276 267.511 186.675C246.982 201.543 227.95 220.919 207.117 237.517C206.597 237.945 206.063 238.397 205.53 238.856C199.082 244.452 192.791 251.149 186.806 257.85C180.767 264.634 175.007 271.525 169.172 278.658C167.398 280.828 165.594 283.051 163.734 285.354Z" fill="url(#paint2_linear_2002_286)"/>
<path d="M523.396 941.26C534.211 942.42 544.468 944.2 554.596 945.084C564.16 945.897 573.591 947.247 583.143 948.582C595.577 950.296 608.095 952.327 620.195 953.8C633.589 955.337 646.67 958.61 659.029 962.359C665.855 964.432 672.648 966.578 679.418 968.72C696.542 974.111 713.934 979.293 731.233 984.561C746.455 989.194 761.675 993.824 776.864 998.708C785.68 1001.55 794.486 1004.24 803.399 1006.79C827.435 1013.74 851.927 1019.28 876.529 1024.91C879.241 1025.54 881.958 1026.17 884.667 1026.82L884.622 1026.81C898.578 1029.88 912.659 1032.79 926.669 1035.84C931.505 1036.9 936.35 1037.97 941.155 1039.09C943.671 1039.68 946.158 1040.29 948.649 1040.94C954.099 1042.33 959.477 1044.23 964.598 1046.47C965.32 1046.78 965.969 1047.13 966.436 1047.47C966.885 1047.81 967.116 1048.1 967.043 1048.29C966.971 1048.47 966.599 1048.54 966.039 1048.48C965.461 1048.42 964.741 1048.24 964.003 1047.98C958.698 1046.01 953.433 1044.5 947.914 1043.43C945.477 1042.94 943.028 1042.5 940.55 1042.07C936.865 1041.42 933.168 1040.82 929.453 1040.22C928.644 1039.24 927.422 1038.38 924.978 1037.64C923.725 1037.26 921.886 1036.86 920.485 1036.76C919.236 1036.67 918.261 1036.73 917.343 1036.8C916.378 1036.87 915.467 1036.94 914.328 1036.81C912.398 1036.6 910.523 1036.6 908.556 1036.61C907.839 1036.62 907.109 1036.62 906.362 1036.62C900.439 1035.7 894.526 1034.79 888.595 1033.85C886.746 1033.43 885.017 1033.04 883.483 1032.74C883.473 1032.74 883.443 1032.73 883.433 1032.73C883.092 1032.66 882.759 1032.59 882.436 1032.53C880.848 1032.24 879.371 1032.11 877.882 1032.02C876.972 1031.86 876.064 1031.7 875.149 1031.54C869.27 1030.52 863.372 1029.51 857.467 1028.48C852.922 1027.34 848.171 1026.17 841.943 1024.76C839.263 1024.15 836.637 1023.47 834.107 1022.8C830.369 1021.81 826.887 1020.87 823.754 1020.27C821.667 1019.87 819.525 1019.25 817.369 1018.61C814.511 1017.77 811.635 1016.91 808.94 1016.56C807.244 1016.34 805.664 1016.19 804.21 1016.05C801.87 1015.81 799.868 1015.61 798.084 1015.16C794.77 1014.33 791.825 1013.8 789.245 1013.32C786.131 1012.74 783.531 1012.24 781.366 1011.36C781.04 1011.23 780.669 1011.07 780.249 1010.89C778.771 1010.26 776.746 1009.38 773.957 1008.46C772.599 1008 771.01 1007.54 769.225 1007.11C767.353 1006.65 765.533 1006.38 763.754 1006.11C761.175 1005.72 758.654 1005.34 756.104 1004.45C755.725 1004.32 755.346 1004.11 755 1003.92C754.561 1003.68 754.167 1003.47 753.908 1003.48C753.138 1003.52 751.935 1003.45 750.62 1003.38C749.668 1003.33 748.65 1003.28 747.698 1003.25C740.943 1001.47 734.168 999.678 727.395 997.883C724.293 997.061 721.191 996.238 718.084 995.41C716.607 994.609 715.076 993.831 713.439 993.105C711.292 992.154 708.439 991.238 704.737 990.044C702.009 989.165 698.863 988.148 695.195 986.851C688.402 984.452 681.349 982.481 676.712 981.319C676.368 981.233 676.026 981.148 675.684 981.063C675.043 980.903 674.397 980.743 673.731 980.58C669.803 979.618 664.846 978.373 655.585 975.954C646.826 973.67 639.46 971.759 633.947 970.547C631.129 969.922 628.794 969.463 626.993 969.157C624.418 968.719 621.357 968.246 618.176 967.846C617.527 967.764 616.845 967.674 616.193 967.586C609.866 966.729 603.681 965.756 600.153 965.314C598.899 965.154 597.584 964.997 596.167 964.83C592.236 964.37 587.511 963.816 581.046 963.035C574.262 962.227 570.096 961.676 565.773 961.058C564.015 960.81 562.488 960.364 560.906 959.916C558.862 959.339 556.722 958.754 553.912 958.646C553.624 958.635 553.33 958.627 553.029 958.623C552.23 958.613 551.377 958.635 550.484 958.653C548.846 958.686 547.075 958.703 545.291 958.477C544.669 958.398 544.127 958.263 543.598 958.13C543.016 957.983 542.445 957.838 541.793 957.768C539.352 957.506 536.987 957.265 534.896 957.045C532.198 956.76 529.955 956.511 528.572 956.272C526.109 955.847 523.397 955.641 520.663 955.451C518.572 955.305 516.473 955.168 514.449 954.943C508.675 954.296 500.735 953.832 492.604 953.961C491.222 953.981 489.948 953.948 488.642 953.882C486.994 953.8 485.375 953.659 483.481 953.504C481.365 953.329 478.954 953.135 475.962 953C474.256 952.924 472.836 953.099 471.494 953.262C470.267 953.413 469.144 953.555 467.967 953.487C466.936 953.426 466.289 953.143 465.672 952.873C464.974 952.574 464.319 952.293 463.239 952.363C462.666 952.4 461.972 952.554 461.133 952.739C460.803 952.812 460.452 952.889 460.082 952.967C460.1 952.908 460.104 952.855 460.103 952.815C460.095 952.534 459.011 952.404 457.907 952.28C457.47 952.23 457.037 952.181 456.682 952.123C455.387 951.908 452.902 951.926 451.017 951.989C450.214 952.015 449.49 951.949 448.652 951.872C447.893 951.805 447.038 951.729 445.967 951.706C445.361 951.692 444.875 951.628 444.482 951.574C444.196 951.534 443.953 951.501 443.73 951.498C443.537 951.495 443.384 951.582 443.213 951.679C443.09 951.749 442.957 951.825 442.792 951.877C442.401 952.002 441.879 952.055 441.513 952.034C441.343 952.025 441.209 951.998 441.076 951.973C440.921 951.942 440.768 951.912 440.558 951.907C439.599 951.887 438.663 952.019 437.692 952.158C436.637 952.309 435.517 952.47 434.277 952.45C433.885 952.443 433.483 952.405 433.067 952.369C432.638 952.331 432.224 952.295 431.876 952.297C430.479 952.308 429.128 952.585 427.942 952.84C427.129 953.01 426.366 953.172 425.666 953.242C424.369 953.371 423.675 953.659 423.181 953.87C422.923 953.979 422.716 954.069 422.483 954.108C422.271 954.115 422.057 954.122 421.848 954.127C421.655 954.122 421.457 954.118 421.273 954.136C421.259 954.138 421.245 954.14 421.232 954.141C420.09 954.161 418.904 954.164 417.788 954.165C415.225 954.171 412.69 954.194 410.048 954.537C409.485 954.61 408.911 954.763 408.325 954.92C407.618 955.112 406.885 955.31 406.131 955.376C404.328 955.534 402.529 955.561 400.719 955.607C400.123 955.62 399.487 955.641 398.912 955.662C396.845 955.746 394.816 955.899 392.947 956.338C392.167 956.523 391.405 956.765 390.633 957.01C390.198 957.147 389.779 957.283 389.349 957.411C389.425 957.268 389.458 957.138 389.49 957.018C389.554 956.769 389.61 956.556 390.008 956.331C390.974 955.793 392.039 955.091 391.861 954.699C391.813 954.593 391.825 954.466 391.839 954.338C391.875 954.018 391.915 953.689 390.96 953.665C390.308 953.65 388.671 953.634 387.668 954.008C387.449 954.09 387.325 954.211 387.187 954.345C386.938 954.587 386.643 954.872 385.684 955.058C385.522 955.089 385.345 955.122 385.162 955.155C384.434 955.285 383.599 955.435 383.32 955.641C382.996 955.879 383.101 956.086 383.223 956.327C383.381 956.642 383.571 957.015 382.88 957.591C382.743 957.706 382.461 957.777 382.248 957.832C382.097 957.87 381.982 957.9 381.974 957.93C381.966 957.964 382.024 958.024 382.098 958.101C382.358 958.37 382.816 958.839 381.223 959.085C380.788 959.153 380.3 959.196 379.859 959.236C379.21 959.295 378.666 959.346 378.606 959.442C378.584 959.479 378.569 959.517 378.559 959.556C378.042 959.62 377.509 959.688 377.002 959.752C376.331 959.747 375.408 959.893 374.243 960.082C373.958 960.128 373.668 960.175 373.362 960.224C372.351 960.358 371.325 960.497 370.305 960.638C369.5 960.722 368.635 960.79 367.71 960.828C365.863 960.903 364.229 960.803 362.63 960.712C361.959 960.673 361.292 960.636 360.615 960.616C360.866 960.553 361.091 960.492 361.262 960.433C362.435 960.031 362.845 959.579 363.237 959.16C363.496 958.882 363.742 958.619 364.184 958.402C364.992 958.003 364.856 957.723 364.757 957.515C364.705 957.407 364.665 957.318 364.769 957.244C364.853 957.184 365.06 957.128 365.274 957.07C365.46 957.019 365.653 956.966 365.772 956.91C367.223 956.223 366.728 956.048 365.994 955.794C365.595 955.653 365.126 955.488 364.874 955.2C364.647 954.889 364.688 954.779 365.464 954.51C364.814 954.446 364.161 954.384 363.504 954.324C363.26 954.377 363.091 954.514 362.858 954.733C362.434 955.127 360.952 955.502 359.776 955.805C359.233 955.945 358.755 956.069 358.497 956.165C357.117 956.68 357.597 956.957 358.019 957.2C358.252 957.334 358.465 957.458 358.343 957.606C358.292 957.67 358.389 957.705 358.487 957.742C358.563 957.77 358.64 957.799 358.651 957.841C358.726 958.146 357.928 958.529 357.185 958.888C356.759 959.094 356.353 959.291 356.139 959.459C356.074 959.511 356.024 959.56 355.977 959.607C355.909 959.676 355.842 959.743 355.731 959.81C355.475 959.963 354.936 960.136 354.338 960.329C354.032 960.428 353.712 960.531 353.411 960.639C353.021 960.778 352.9 960.929 352.772 961.086C352.682 961.198 352.587 961.313 352.394 961.43C352.04 961.644 351.302 961.844 350.608 962.033C350.307 962.115 350.015 962.196 349.771 962.273C349.672 962.304 349.627 962.335 349.623 962.366C348.484 962.701 347.414 963.029 346.367 963.355C341.119 964.997 336.624 966.467 329.731 967.969C328.43 968.255 327.056 968.641 325.674 969.078C321.194 970.206 316.737 971.431 312.318 972.765C311.363 972.785 310.223 972.918 308.912 973.176C306.447 973.662 304.008 974.462 301.154 975.462C299.044 976.202 296.707 977.052 293.959 977.999C290.266 979.272 286.534 980.702 282.578 982.479C281.597 982.92 280.601 983.387 279.592 983.881C274.55 986.333 268.989 989.599 265.174 992.1C263.086 993.457 260.797 994.736 258.674 995.974C255.691 997.711 253.036 999.365 251.815 1000.86C251.421 1001.34 251.108 1001.89 250.809 1002.42C250.595 1002.8 250.383 1003.17 250.152 1003.51C249.312 1004.12 248.49 1004.74 247.654 1005.37C246.048 1006.3 243.622 1007.9 241.718 1009.93C240.867 1010.6 240.037 1011.26 239.22 1011.91C237.452 1013.33 235.733 1014.72 233.997 1016.15C233.435 1016.61 232.866 1017.08 232.293 1017.55C232.287 1017.56 232.282 1017.56 232.276 1017.57C231.133 1018.52 229.969 1019.49 228.845 1020.43C228.362 1020.84 227.876 1021.25 227.389 1021.66C226.169 1022.69 224.921 1023.75 223.717 1024.78C223.076 1025.33 222.422 1025.89 221.781 1026.44C220.733 1027.34 219.672 1028.25 218.626 1029.16C216.922 1030.63 215.236 1032.1 213.554 1033.57C213.277 1033.81 212.988 1034.02 212.75 1034.15C212.511 1034.27 212.342 1034.31 212.277 1034.24C212.213 1034.17 212.258 1034 212.397 1033.77C212.537 1033.54 212.761 1033.26 213.017 1033C214.576 1031.4 216.142 1029.8 217.726 1028.19C218.699 1027.2 219.685 1026.2 220.661 1025.22C221.258 1024.62 221.868 1024.01 222.465 1023.41C223.586 1022.29 224.755 1021.13 225.896 1020.01C226.352 1019.56 226.806 1019.11 227.258 1018.67C228.312 1017.63 229.407 1016.57 230.485 1015.53C230.491 1015.52 230.498 1015.52 230.504 1015.51C231.039 1015 231.571 1014.49 232.095 1013.98C233.729 1012.42 235.351 1010.89 237.027 1009.34C237.895 1008.53 238.795 1007.71 239.704 1006.88C240.208 1006.43 240.705 1005.98 241.206 1005.53C241.478 1005.28 241.754 1005.04 242.031 1004.79C248.388 999.116 254.948 993.687 261.953 988.667C267.711 984.539 273.748 980.721 280.057 977.371C281.384 976.665 282.72 975.975 284.062 975.3C291.762 971.426 299.685 968.041 307.748 965.047C336.681 954.308 367.258 948.56 397.527 944.311C421.228 941.068 444.887 939.767 468.606 939.241C475.296 939.103 482.116 939.049 488.868 939.074C489.996 939.078 491.091 939.09 492.211 939.109C500.246 939.244 508.097 939.759 516.023 940.51C518.431 940.737 520.888 940.99 523.396 941.26Z" fill="url(#paint3_linear_2002_286)"/>
<path d="M927.314 118.269C915.162 118.428 903.282 117.865 891.37 117.446C884.365 117.208 877.335 116.718 870.222 116.046C845.852 113.938 821.023 107.68 799.062 97.4248C790.748 93.6128 782.64 89.5492 774.598 85.5045C760.587 78.6016 748.46 68.6562 737.214 59.8719C735.414 58.4921 733.622 57.1569 731.827 55.9013C716.747 45.1915 706.458 31.558 694.513 20.1383C691.398 17.1014 688.184 14.0945 684.914 11.0978C667.594 -4.72681 649.336 -19.7501 630.491 -33.9128C622.103 -40.2086 613.584 -46.3293 604.903 -52.269L605.197 -52.1119C600.185 -54.4907 595.147 -56.7858 590.069 -58.9904C583.611 -61.8025 577.096 -64.4184 570.538 -67.0284C569.486 -67.4498 568.435 -67.8732 567.386 -68.3041C567.381 -68.3061 567.364 -68.3129 567.359 -68.315C563.566 -70.0521 559.912 -71.9142 556.084 -73.4377C555.409 -73.7106 554.78 -74.0322 554.343 -74.3415C553.904 -74.6518 553.688 -74.9264 553.751 -75.1153C553.816 -75.3033 554.158 -75.3934 554.702 -75.3645C555.243 -75.3361 555.947 -75.1872 556.649 -74.9529C560.621 -73.6482 564.483 -71.9718 568.272 -70.5137L568.222 -70.5336C569.328 -70.157 570.442 -69.7867 571.558 -69.4176C577.151 -67.5781 582.768 -65.7264 588.348 -63.7375C588.919 -62.6376 589.883 -61.5983 592 -60.4564C593.071 -59.8777 594.713 -59.1487 595.97 -58.7955C597.11 -58.474 598.029 -58.3549 598.886 -58.248C599.796 -58.1297 600.645 -58.0221 601.679 -57.6715C603.409 -57.0864 605.14 -56.7175 606.965 -56.3174C606.987 -56.3127 607.008 -56.308 607.03 -56.3032C607.1 -56.2705 607.303 -56.1656 607.368 -56.1223C607.983 -55.8817 608.607 -55.6363 609.242 -55.3749C614.078 -52.458 618.881 -49.4782 623.655 -46.4356C625.393 -45.151 627.039 -43.9359 628.444 -43.0061C629.712 -42.1668 630.974 -41.4987 632.231 -40.8814C632.957 -40.4042 633.69 -39.9196 634.424 -39.4329C639.134 -36.3093 643.798 -33.1351 648.443 -29.8931C651.872 -27.083 655.437 -24.1441 660.14 -20.3998C662.151 -18.7978 664.099 -17.1279 665.966 -15.5124C668.684 -13.1574 671.294 -10.8642 673.661 -9.09453C675.284 -7.8793 676.832 -6.46381 678.367 -5.04604C680.457 -3.11929 682.481 -1.22361 684.643 0.196968C685.969 1.06141 687.284 1.86958 688.434 2.56478C690.338 3.73475 691.947 4.72447 693.266 5.8545C695.722 7.95902 697.983 9.64091 699.969 11.1474C700.525 11.5637 701.155 12.0557 701.654 12.4424C703.3 13.7387 704.689 14.9464 705.749 16.2292C705.964 16.4889 706.204 16.7908 706.472 17.1302C707.887 18.9205 710.117 21.7986 713.914 25.2572C715.265 26.4855 716.643 27.5293 717.988 28.5391C719.949 30.01 721.842 31.4131 723.525 33.243C723.778 33.5169 723.991 33.8523 724.186 34.1567C724.434 34.5443 724.654 34.8832 724.878 34.9809C725.537 35.2672 726.504 35.8036 727.556 36.3653C728.326 36.7763 729.144 37.203 729.918 37.5632C732.995 40.1508 736.131 42.5344 739.374 44.6002C741.471 45.9466 743.494 47.3369 745.466 48.732C747.997 50.5236 750.452 52.3278 752.878 54.0944C753.883 55.3147 754.926 56.5145 756.093 57.6932C757.618 59.2312 759.785 60.9551 762.615 63.0677C764.7 64.6209 767.145 66.3831 770.014 68.3898C773.317 70.7036 776.878 72.7 780.081 74.1995C782.119 75.1581 783.969 75.9798 785.515 76.6307C786.374 76.9924 787.243 77.3545 788.172 77.7389C791.692 79.1833 796.072 81.0379 804.33 84.4283C812.14 87.6219 818.767 90.1784 823.785 91.9412C826.347 92.8437 828.486 93.5477 830.134 94.0457C832.958 94.9009 836.43 95.9015 839.937 96.791C845.425 98.1988 851.013 99.2883 854.194 99.7448C855.334 99.9119 856.52 100.065 857.809 100.219C861.38 100.638 865.705 101.073 871.663 101.513C877.913 101.954 881.838 102.191 885.868 102.494C887.543 102.612 888.952 102.941 890.477 103.268C890.77 103.331 891.064 103.394 891.364 103.455C893.275 103.843 895.4 104.182 898.07 104.058C898.812 104.025 899.56 103.95 900.381 103.872C901.871 103.728 903.492 103.572 905.127 103.639C905.7 103.662 906.22 103.746 906.71 103.829C907.251 103.919 907.785 104.008 908.394 104.012C910.661 104.028 912.857 104.003 914.826 103.979C917.343 103.949 919.463 103.923 920.781 103.992C923.116 104.116 925.685 103.987 928.272 103.854C930.254 103.752 932.251 103.647 934.187 103.65C939.715 103.662 947.324 103.37 955.136 102.869C958.094 102.679 960.592 102.826 963.811 103.002C965.808 103.111 968.079 103.232 970.895 103.276C972.474 103.302 973.835 103.083 975.069 102.879C976.221 102.69 977.265 102.513 978.36 102.543C978.641 102.55 978.89 102.579 979.117 102.621C979.693 102.721 980.137 102.904 980.563 103.08C981.236 103.358 981.861 103.621 982.889 103.525C983.442 103.474 984.108 103.304 984.895 103.104C985.206 103.025 985.537 102.941 985.887 102.858C985.871 102.917 985.868 102.97 985.869 103.01C985.873 103.291 986.94 103.403 987.975 103.514C988.388 103.559 988.798 103.603 989.135 103.658C990.384 103.859 992.712 103.828 994.505 103.763C995.261 103.736 995.936 103.803 996.741 103.879C997.453 103.948 998.253 104.024 999.264 104.05C999.841 104.065 1000.29 104.131 1000.66 104.186C1000.93 104.226 1001.16 104.26 1001.37 104.263C1001.55 104.266 1001.69 104.181 1001.85 104.084C1001.97 104.014 1002.09 103.939 1002.25 103.887C1002.62 103.762 1003.1 103.71 1003.45 103.732C1003.6 103.743 1003.73 103.769 1003.85 103.795C1004 103.826 1004.14 103.856 1004.34 103.861C1005.24 103.882 1006.11 103.752 1007.02 103.613C1008.01 103.46 1009.04 103.298 1010.2 103.313C1010.57 103.318 1010.96 103.353 1011.33 103.387C1011.73 103.423 1012.11 103.456 1012.44 103.45C1013.75 103.426 1014.97 103.135 1016.08 102.858C1016.82 102.675 1017.52 102.498 1018.17 102.412C1019.36 102.253 1019.98 101.946 1020.43 101.72C1020.67 101.603 1020.86 101.506 1021.07 101.461C1021.26 101.447 1021.45 101.434 1021.64 101.421C1021.82 101.419 1022 101.417 1022.17 101.392C1022.18 101.39 1022.2 101.388 1022.21 101.386C1023.28 101.323 1024.33 101.275 1025.37 101.219C1027.71 101.091 1030.03 100.915 1032.4 100.373C1032.92 100.256 1033.43 100.056 1033.94 99.8535C1034.56 99.6041 1035.2 99.3443 1035.88 99.2091C1037.5 98.8888 1039.16 98.6699 1040.78 98.4276C1043.24 98.0593 1045.65 97.6179 1047.67 96.7109C1048.35 96.4112 1049 96.0498 1049.63 95.6911C1049.98 95.4905 1050.33 95.2866 1050.69 95.0893C1050.65 95.2417 1050.64 95.3737 1050.64 95.4968C1050.63 95.7504 1050.63 95.9682 1050.31 96.2558C1049.58 96.9329 1048.73 97.7943 1048.97 98.1492C1049.04 98.2457 1049.05 98.3719 1049.06 98.4996C1049.09 98.8194 1049.12 99.1498 1050 99.0165C1050.59 98.9284 1052.08 98.666 1052.93 98.1154C1053.11 97.9963 1053.19 97.8557 1053.29 97.6993C1053.47 97.4164 1053.66 97.0898 1054.49 96.7263C1054.63 96.665 1054.78 96.5997 1054.94 96.5326C1055.57 96.2656 1056.28 95.9569 1056.5 95.6974C1056.74 95.3982 1056.59 95.221 1056.42 95.0107C1056.2 94.7392 1055.95 94.4127 1056.42 93.7178C1056.52 93.58 1056.75 93.4544 1056.93 93.3586C1057.05 93.2912 1057.14 93.2387 1057.14 93.2084C1057.14 93.1737 1057.08 93.1271 1056.99 93.0683C1056.69 92.8594 1056.18 92.5 1057.52 91.9387C1057.88 91.7858 1058.31 91.6378 1058.7 91.5025C1059.27 91.3043 1059.72 91.1421 1059.75 91.0359C1059.76 90.9961 1059.76 90.9565 1059.76 90.9169C1060.2 90.7431 1060.64 90.5662 1061.08 90.386C1061.68 90.2374 1062.47 89.8795 1063.43 89.4339C1063.66 89.3248 1063.91 89.2092 1064.16 89.089C1065.02 88.7172 1065.91 88.3237 1066.75 87.9443C1067.43 87.6629 1068.18 87.3778 1068.99 87.0997C1070.6 86.5453 1072.05 86.2165 1073.52 85.849C1074.13 85.6965 1074.72 85.5547 1075.32 85.3846C1075.12 85.5132 1074.95 85.6326 1074.81 85.7352C1073.93 86.4311 1073.68 86.9854 1073.47 87.4877C1073.32 87.8225 1073.19 88.1384 1072.86 88.4648C1072.27 89.0615 1072.48 89.2899 1072.63 89.4604C1072.71 89.5487 1072.78 89.6218 1072.71 89.7204C1072.65 89.7997 1072.48 89.9093 1072.31 90.0219C1072.16 90.12 1072.01 90.2212 1071.92 90.3065C1070.83 91.346 1071.32 91.3831 1072.06 91.4252C1072.46 91.4525 1072.94 91.4821 1073.25 91.6866C1073.55 91.9198 1073.55 92.0359 1072.93 92.5015C1073.54 92.3867 1074.14 92.2667 1074.75 92.1415C1074.96 92.0233 1075.07 91.8462 1075.21 91.5728C1075.46 91.0845 1076.7 90.2989 1077.64 89.6844C1078.08 89.3982 1078.46 89.1454 1078.66 88.9778C1079.75 88.0834 1079.22 87.9637 1078.76 87.8602C1078.5 87.8028 1078.27 87.7483 1078.33 87.5729C1078.36 87.498 1078.26 87.4931 1078.16 87.4875C1078.08 87.4832 1078 87.479 1077.98 87.4424C1077.81 87.1763 1078.41 86.5802 1078.95 86.0219C1079.26 85.7086 1079.55 85.4069 1079.68 85.188C1079.72 85.1213 1079.75 85.0608 1079.77 85.0029C1079.81 84.9184 1079.84 84.837 1079.92 84.7419C1080.09 84.5254 1080.52 84.2019 1080.98 83.8426C1081.22 83.6585 1081.47 83.4651 1081.71 83.2733C1082.01 83.0244 1082.07 82.846 1082.13 82.6593C1082.17 82.527 1082.21 82.3935 1082.34 82.2273C1082.57 81.9272 1083.15 81.5193 1083.7 81.1339C1083.94 80.9662 1084.17 80.8025 1084.36 80.6561C1084.44 80.5966 1084.47 80.554 1084.46 80.5237C1084.91 80.1905 1085.35 79.86 1085.79 79.5316C1086.2 79.22 1086.6 78.9082 1087.01 78.5959C1091.15 75.4372 1094.71 72.6703 1100.53 69.3122C1101.63 68.6717 1102.76 67.9328 1103.91 67.1439C1107.68 64.865 1111.46 62.5782 1115.24 60.2955C1116.13 60.062 1117.16 59.6764 1118.32 59.1514C1120.51 58.1572 1122.61 56.8941 1125.08 55.4084C1126.91 54.3079 1128.95 53.0854 1131.39 51.7572C1135.48 49.5259 1139.66 47.1917 1144.3 44.4313C1148.91 41.6822 1154.18 38.5194 1157.91 36.2715C1159.93 35.0558 1162.21 33.9637 1164.32 32.9718C1166.36 32.0096 1168.26 31.1235 1169.67 30.2687C1170.31 29.8741 1170.87 29.473 1171.29 29.074C1171.71 28.6693 1172.08 28.1818 1172.42 27.7125C1172.67 27.3781 1172.92 27.0491 1173.18 26.7593C1174.05 26.2999 1174.93 25.8392 1175.8 25.3849C1177.47 24.765 1179.99 23.6938 1182.13 22.1315C1183.04 21.6701 1183.95 21.2099 1184.83 20.7687C1186.74 19.8031 1188.62 18.8668 1190.52 17.9276C1191.13 17.6237 1191.77 17.3111 1192.39 17.0044C1192.4 17.0015 1192.4 16.9986 1192.41 16.9958C1193.67 16.3722 1194.94 15.7508 1196.2 15.14C1196.74 14.8783 1197.27 14.6197 1197.81 14.3576C1199.18 13.6987 1200.56 13.031 1201.91 12.3856C1202.63 12.0429 1203.36 11.6961 1204.08 11.3537C1205.27 10.7912 1206.45 10.2369 1207.64 9.67876C1209.55 8.78445 1211.47 7.89951 1213.39 7.03095C1213.69 6.89616 1214.03 6.77895 1214.28 6.7375C1214.53 6.6942 1214.68 6.71705 1214.73 6.80096C1214.77 6.8852 1214.69 7.02579 1214.51 7.19882C1214.33 7.36961 1214.03 7.5705 1213.75 7.73177C1211.91 8.76126 1210.07 9.80551 1208.24 10.8569C1207.1 11.5117 1205.98 12.1626 1204.85 12.8203C1204.16 13.2217 1203.46 13.6257 1202.78 14.0268C1201.48 14.7816 1200.16 15.5591 1198.86 16.3252C1198.34 16.6298 1197.83 16.9305 1197.32 17.2346C1196.11 17.9462 1194.9 18.6677 1193.68 19.3902C1193.68 19.3946 1193.67 19.3989 1193.66 19.4032C1193.07 19.7558 1192.47 20.1142 1191.89 20.4635C1190.07 21.5477 1188.28 22.6276 1186.45 23.7338C1185.51 24.3072 1184.52 24.9041 1183.55 25.4988C1183 25.8297 1182.46 26.1617 1181.93 26.4873C1181.64 26.6648 1181.34 26.8457 1181.05 27.027C1177.79 29.0312 1174.54 31.0544 1171.33 33.0993C1167.87 35.3043 1164.42 37.5593 1160.97 39.8449C1154.34 44.2354 1147.74 48.7137 1141.18 53.196C1134.6 57.6898 1128.04 62.2046 1121.47 66.7161C1111.31 73.6903 1101.13 80.7217 1090.75 87.551C1059.27 110.639 1016.5 116.28 979.746 116.715C979.262 116.744 978.771 116.772 978.272 116.8C970.907 117.212 963.463 117.475 956.16 117.688C948.785 117.899 941.583 118.05 934.205 118.169C931.965 118.205 929.668 118.238 927.314 118.269Z" fill="url(#paint4_linear_2002_286)"/>
<defs>
<linearGradient id="paint0_linear_2002_286" x1="984.449" y1="378.711" x2="984.449" y2="960.055" gradientUnits="userSpaceOnUse">
<stop stop-color="#FFD2D2" stop-opacity="0.2"/>
<stop offset="1" stop-color="#FFBFDE" stop-opacity="0.1"/>
</linearGradient>
<linearGradient id="paint1_linear_2002_286" x1="1449.03" y1="-134.709" x2="1449.03" y2="284.817" gradientUnits="userSpaceOnUse">
<stop stop-color="#FFD2D2" stop-opacity="0.2"/>
<stop offset="1" stop-color="#FFBFDE" stop-opacity="0.1"/>
</linearGradient>
<linearGradient id="paint2_linear_2002_286" x1="177.062" y1="-12.8466" x2="177.062" y2="744.299" gradientUnits="userSpaceOnUse">
<stop stop-color="#FFD2D2" stop-opacity="0.2"/>
<stop offset="1" stop-color="#FFBFDE" stop-opacity="0.1"/>
</linearGradient>
<linearGradient id="paint3_linear_2002_286" x1="589.597" y1="946.621" x2="589.597" y2="1047.96" gradientUnits="userSpaceOnUse">
<stop stop-color="#FFD2D2" stop-opacity="0.2"/>
<stop offset="1" stop-color="#FFBFDE" stop-opacity="0.1"/>
</linearGradient>
<linearGradient id="paint4_linear_2002_286" x1="884.265" y1="-74.7768" x2="884.265" y2="110.344" gradientUnits="userSpaceOnUse">
<stop stop-color="#FFD2D2" stop-opacity="0.2"/>
<stop offset="1" stop-color="#FFBFDE" stop-opacity="0.1"/>
</linearGradient>
</defs>
</svg>
