<svg width="33" height="33" viewBox="0 0 33 33" fill="none" xmlns="http://www.w3.org/2000/svg">
<path d="M29.8332 16.2264C29.8332 23.5902 23.8636 29.5598 16.4998 29.5598C9.13604 29.5598 3.1665 23.5902 3.1665 16.2264C3.1665 8.86263 9.13604 2.8931 16.4998 2.8931C23.8636 2.8931 29.8332 8.86263 29.8332 16.2264ZM5.83317 16.2264C5.83317 22.1175 10.6088 26.8931 16.4998 26.8931C22.3909 26.8931 27.1665 22.1175 27.1665 16.2264C27.1665 10.3354 22.3909 5.55976 16.4998 5.55976C10.6088 5.55976 5.83317 10.3354 5.83317 16.2264Z" fill="#2B2B2B" fill-opacity="0.16"/>
<path d="M16.4998 4.22643C16.4998 3.49005 15.9014 2.88619 15.1687 2.9597C13.0019 3.1771 10.9141 3.92283 9.09223 5.14017C6.89958 6.60525 5.19061 8.68764 4.18144 11.124C3.17228 13.5603 2.90823 16.2412 3.4227 18.8276C3.93717 21.414 5.20705 23.7898 7.07175 25.6545C8.93645 27.5192 11.3122 28.7891 13.8986 29.3036C16.485 29.818 19.1659 29.554 21.6023 28.5448C24.0386 27.5357 26.121 25.8267 27.5861 23.634C28.8034 21.8122 29.5492 19.7243 29.7666 17.5576C29.8401 16.8249 29.2362 16.2264 28.4998 16.2264C27.7635 16.2264 27.1751 16.8257 27.0833 17.5563C26.8774 19.1947 26.293 20.7694 25.3688 22.1525C24.1968 23.9066 22.5309 25.2738 20.5818 26.0811C18.6327 26.8885 16.488 27.0997 14.4189 26.6881C12.3497 26.2766 10.4491 25.2607 8.95736 23.7689C7.4656 22.2771 6.4497 20.3765 6.03813 18.3074C5.62655 16.2383 5.83779 14.0936 6.64512 12.1445C7.45246 10.1954 8.81963 8.52949 10.5738 7.35742C11.9568 6.43327 13.5315 5.84887 15.1699 5.64298C15.9006 5.55117 16.4998 4.96281 16.4998 4.22643Z" fill="#454545"/>
</svg>
